<?xml version="1.0" encoding="utf-8"?>
<svg version="1.1" xmlns="http://www.w3.org/2000/svg" xmlns:xlink="http://www.w3.org/1999/xlink" xml:space="preserve" x="0px" y="0px" viewBox="0 0 512 512">
<g fill="#DC3545">
  <polygon class="st0" points="371.4,371.4 371.4,357.9 371.4,294.3 332.9,294.3 256,294.3 256,371.4 332.9,371.4"/>
  <path class="st0" d="M448,256v153.4c0,10.8-3.6,19.8-10.9,27.1c-7.7,7.7-16.7,11.5-27.1,11.5h-77.1H256v64h192 c35.3,0,64-28.7,64-64V256H448z"/>
</g>
<g fill="#198754">
  <path class="st1" d="M179.1,448h-76.6c-10.8,0-19.8-3.8-27.1-11.5c-7.7-7.3-11.5-16.3-11.5-27.1V293.8V256H0v192 c0,35.3,28.7,64,64,64h192v-64H179.1z"/>
  <polygon class="st1" points="256,371.4 256,294.3 179.1,294.3 140.6,294.3 140.6,371.4 179.1,371.4"/>
</g>
<path fill="#FFC107" class="st2" d="M448,0H256v64h76.9H410c10.4,0,19.4,3.6,27.1,10.9c7.3,7.7,10.9,16.7,10.9,27.1v77.1h-76.6v-38.6h-38.6H256 v77.1h76.9H410c10.4,0,19.4,3.6,27.1,10.9c7.3,7.7,10.9,16.7,10.9,27.1v0.3h64V64C512,28.7,483.3,0,448,0z"/>
<g fill="#0D6EFD">
  <polygon class="st3" points="256,140.6 179.1,140.6 140.6,140.6 140.6,217.7 179.1,217.7 256,217.7"/>
  <path class="st3" d="M64,214.6V102c0-10.4,3.8-19.4,11.5-27.1C82.8,67.6,91.8,64,102.6,64h76.6H256V0H64C28.7,0,0,28.7,0,64v192h64 V214.6z"/>
</g>
</svg>
